<svg xmlns="http://www.w3.org/2000/svg" width="22" height="22" viewBox="0 0 22 22">
  <g id="like" transform="translate(-50 -312)">
    <circle id="Ellipse_90" data-name="Ellipse 90" cx="11" cy="11" r="11" transform="translate(50 312)" fill="#3b90e3"/>
    <path id="Icon_awesome-thumbs-up" data-name="Icon awesome-thumbs-up" d="M2.039,4.392H.471A.471.471,0,0,0,0,4.862V9.568a.471.471,0,0,0,.471.471H2.039a.471.471,0,0,0,.471-.471V4.862A.471.471,0,0,0,2.039,4.392ZM1.255,9.254a.471.471,0,1,1,.471-.471A.471.471,0,0,1,1.255,9.254ZM7.529,1.6c0,.832-.509,1.3-.652,1.854H8.871A1.171,1.171,0,0,1,10.038,4.59a1.42,1.42,0,0,1-.381.965l0,0a1.638,1.638,0,0,1-.182,1.558A1.55,1.55,0,0,1,9.151,8.58a1.041,1.041,0,0,1-.121.875c-.4.575-1.392.583-2.231.583H6.744A5.628,5.628,0,0,1,4.4,9.416,3.086,3.086,0,0,0,3.368,9.1a.235.235,0,0,1-.231-.235V4.673a.235.235,0,0,1,.07-.167c.777-.767,1.111-1.58,1.747-2.218a2.374,2.374,0,0,0,.5-1.155C5.539.77,5.721,0,6.117,0,6.588,0,7.529.157,7.529,1.6Z" transform="translate(56 318)" fill="#fff"/>
  </g>
</svg>
